<?xml version="1.0" encoding="utf-8"?>
<!-- Generator: Adobe Illustrator 18.0.0, SVG Export Plug-In . SVG Version: 6.00 Build 0)  -->
<!DOCTYPE svg PUBLIC "-//W3C//DTD SVG 1.1//EN" "http://www.w3.org/Graphics/SVG/1.1/DTD/svg11.dtd">
<svg version="1.1" id="Layer_1" xmlns="http://www.w3.org/2000/svg" xmlns:xlink="http://www.w3.org/1999/xlink" x="0px" y="0px"
	 viewBox="0 0 50 50" enable-background="new 0 0 50 50" xml:space="preserve">
<g>
	<g>
		<g>
			<path fill="#EFEEE1" d="M25.4,37.1l-0.6-0.4c-1.4-0.9-8.3-5.7-10.7-10c-1.2-2.1-1.6-4.4-1-6.5c0.5-1.8,1.6-3.2,3.2-4.1
				c0.8-0.5,1.8-0.7,2.8-0.7c2.2,0,4.4,1.1,6.2,2.9c1.8-1.9,4.1-3,6.2-3c1,0,1.9,0.2,2.7,0.7c1.6,0.9,2.7,2.3,3.2,4
				c0.6,2,0.3,4.3-0.9,6.5c-2.4,4.3-9.2,9.2-10.5,10.1L25.4,37.1z M19.1,17.5c-0.7,0-1.3,0.2-1.8,0.4c-1.1,0.6-1.9,1.6-2.2,2.9
				c-0.3,1.1-0.4,2.8,0.8,4.9c2,3.4,7.6,7.6,9.5,8.9c1.9-1.4,7.5-5.6,9.4-9c1.2-2.2,1.1-3.9,0.7-5c-0.4-1.2-1.2-2.3-2.3-2.9
				c-0.5-0.3-1.1-0.4-1.7-0.4c-1.9,0-3.9,1.2-5.4,3.2l-0.8,1l-0.8-1C23,18.7,21,17.5,19.1,17.5z"/>
		</g>
	</g>
	<g>
		<g>
			<polygon fill="#EFEEE1" points="17.6,29.5 16.2,28 25.3,19 34.7,27.7 33.3,29.2 25.3,21.7 			"/>
		</g>
	</g>
</g>
</svg>
