<?xml version="1.0" encoding="utf-8"?>
<!-- Generator: Adobe Illustrator 18.0.0, SVG Export Plug-In . SVG Version: 6.00 Build 0)  -->
<!DOCTYPE svg PUBLIC "-//W3C//DTD SVG 1.1//EN" "http://www.w3.org/Graphics/SVG/1.1/DTD/svg11.dtd">
<svg version="1.1" id="Layer_1" xmlns="http://www.w3.org/2000/svg" xmlns:xlink="http://www.w3.org/1999/xlink" x="0px" y="0px"
	 viewBox="4.4 12.1 42.1 24.7" enable-background="new 4.4 12.1 42.1 24.7" xml:space="preserve">
<g id="XMLID_1_">
	<g>
		<g>
			<path id="XMLID_93_" fill="#F8F9ED" d="M21.2,16.4H21l-0.4-0.9h0.2l0.3,0.7l0.3-0.7h0.2L21.2,16.4z"/>
			<path id="XMLID_98_" fill="#F8F9ED" d="M22.9,16c0,0.1,0,0.2-0.2,0.3c-0.1,0-0.2,0.1-0.4,0.1c-0.3,0-0.4-0.1-0.5-0.2
				c0,0-0.1-0.1-0.1-0.3c0-0.2,0.1-0.3,0.2-0.4c0.1-0.1,0.2-0.1,0.4-0.1c0.1,0,0.2,0,0.4,0.1c0,0,0,0,0.1,0c0,0,0,0,0.1,0.1
				c0,0,0.1,0.1,0.1,0.3C22.9,15.9,22.9,16,22.9,16z M22.6,15.7c-0.1-0.1-0.2-0.1-0.3-0.1c0,0-0.1,0-0.1,0C22,15.7,22,15.9,22,15.9
				c0,0,0,0.1,0,0.1c0,0,0,0,0,0.1c0,0,0,0,0,0.1c0,0,0.1,0.1,0.2,0.1c0,0,0.1,0,0.1,0c0.2-0.1,0.2-0.2,0.2-0.3
				C22.7,15.9,22.7,15.8,22.6,15.7z"/>
			<path id="XMLID_101_" fill="#F8F9ED" d="M23.2,16.4v-0.9h0.2v0.8H24v0.2H23.2z"/>
			<path id="XMLID_103_" fill="#F8F9ED" d="M24.2,16.4v-0.2h0.2v0.2H24.2z"/>
			<path id="XMLID_105_" fill="#F8F9ED" d="M25.1,16.4v-0.7c0,0,0,0,0,0c-0.1,0-0.1,0.1-0.2,0.1v-0.2c0,0,0.2,0,0.2-0.1c0,0,0,0,0,0
				h0.2v0.9H25.1z"/>
		</g>
		<g>
			<path id="XMLID_94_" fill="#F8F9ED" d="M23.1,19.4c-2,0-3.6-1.6-3.6-3.6s1.6-3.6,3.6-3.6s3.6,1.6,3.6,3.6S25.1,19.4,23.1,19.4z
				 M23.1,12.4c-1.8,0-3.3,1.5-3.3,3.3s1.5,3.3,3.3,3.3s3.3-1.5,3.3-3.3S25,12.4,23.1,12.4z"/>
		</g>
	</g>
	<g>
		<g>
			<path id="XMLID_86_" fill="#F8F9ED" d="M12.6,25.2c0.3-0.5,0.7-0.9,1-1c0.5-0.2,0.3,0.4-0.7,0.9l0,0l-0.6,2.5
				c-0.1,0.3-0.2,0.6-0.3,0.8c1.1,0.4,2.1,1.2,3.2,0.8c0.8-0.3,1-1,1.1-1.3h0.1c0,0.3-0.2,1.1-1.1,1.4c-1.2,0.4-2.2-0.5-3.3-0.8
				c-0.3,0.4-0.6,0.6-1.1,0.8c-0.8,0.3-1.1-0.6-0.3-0.9c0.4-0.1,0.8-0.1,1.1,0c0,0,0-0.1,0-0.1l0.6-2.5
				C12.5,25.5,12.5,25.4,12.6,25.2c-0.1,0.1-0.2,0.1-0.4,0.2c-0.9,0.3-1.3,0-1.4-0.2l0-0.1c0.1,0.2,0.5,0.4,1.3,0.1
				C12.4,25.3,12.5,25.2,12.6,25.2z M10.9,29.1c0.4-0.1,0.7-0.3,0.9-0.8c-0.4-0.1-0.7-0.1-1.1,0C9.9,28.6,10.2,29.4,10.9,29.1z
				 M13,25c0.8-0.4,1.1-0.9,0.7-0.8C13.3,24.4,13.1,24.6,13,25z"/>
			<path id="XMLID_90_" fill="#F8F9ED" d="M14.8,27.2c-0.1,0.2-0.2,0.3-0.3,0.4c-0.1,0-0.3,0-0.3-0.2c-0.1-0.3,0-0.6,0-0.8l0,0
				c-0.1,0.2-0.4,1.2-0.9,1.4c-0.2,0.1-0.3,0-0.3-0.2c-0.2-0.6,0.5-2.2,1.2-2.5c0.1,0,0.2,0,0.3,0.1l0,0h0c0-0.1,0-0.1,0.1-0.2
				c0.1-0.1,0.3-0.2,0.3-0.2c0,0,0,0,0.1,0c0,0,0,0,0,0.1L14.4,27c0,0.2,0,0.2,0,0.3c0,0.1,0.1,0.1,0.1,0.1
				C14.6,27.3,14.7,27.3,14.8,27.2l0.2-0.9c0-0.1,0.1-0.3,0.1-0.3l0.1,0c0,0-0.1,0.2-0.1,0.3L14.8,27.2z M13.3,27.4
				c0,0.1,0.1,0.2,0.2,0.1c0.2-0.1,0.4-0.6,0.6-1.1c0.1-0.3,0.2-0.8,0.2-0.9c0,0-0.1-0.1-0.2-0.1c-0.4,0.1-0.8,1-0.8,1.4
				C13.3,27.1,13.3,27.3,13.3,27.4z"/>
		</g>
		<g>
			<path id="XMLID_76_" fill="#F8F9ED" d="M29.9,20.4c1.3-0.3,2.8-0.1,4.1-0.1c0.5-1,1-1.3,1.4-1.4c1.1-0.3,1.1,1-0.1,1.3
				c-0.3,0.1-0.7,0.1-1.1,0.1c-0.1,0.4-0.3,0.8-0.4,1.3l-0.4,1.6c0,0.2,0,0.2,0,0.3c0,0.1,0.1,0.1,0.1,0.1c0.1,0,0.1-0.1,0.1-0.2
				l0.3-0.9c0-0.1,0.1-0.2,0.1-0.2l0,0c0,0-0.1,0.2-0.1,0.3l-0.3,0.9c-0.1,0.1-0.2,0.3-0.3,0.3c-0.1,0-0.3,0-0.3-0.2
				c-0.1-0.3,0-0.6,0.1-0.8h0c-0.1,0.2-0.5,1.2-1,1.4c-0.2,0-0.3,0-0.3-0.2c-0.1-0.6,0.6-2.2,1.3-2.4c0.1,0,0.2,0,0.3,0.1l0,0h0
				c0.2-0.6,0.3-1,0.5-1.4C32.6,20.4,31.1,20.1,29.9,20.4c-1.3,0.4-1.3,1.4-1.3,1.6l-0.1,0C28.5,21.8,28.5,20.7,29.9,20.4z
				 M32.3,23.6c0,0.1,0.1,0.2,0.2,0.2c0.2-0.1,0.4-0.6,0.7-1.1c0.1-0.3,0.3-0.8,0.2-0.9c0,0-0.1-0.1-0.2-0.1c-0.4,0.1-0.8,1-0.9,1.4
				C32.3,23.2,32.2,23.4,32.3,23.6z M34.3,20.3c0.4,0,0.7-0.1,1-0.1c1.1-0.3,1.1-1.5,0.1-1.2C35,19,34.6,19.4,34.3,20.3z"/>
			<path id="XMLID_80_" fill="#F8F9ED" d="M34,23.3c-0.2-0.6,0.6-2.1,1.3-2.3c0.1,0,0.2,0,0.3,0.1c0.1,0.4-0.2,1-1.1,1.5
				c0,0.2,0,0.4,0,0.5c0,0.1,0.1,0.2,0.2,0.1c0.4-0.1,0.7-0.6,0.9-1.1c0-0.1,0.1-0.2,0.1-0.2l0,0c0,0,0,0.2-0.1,0.3
				c-0.2,0.4-0.6,1.2-1.2,1.3C34.2,23.6,34,23.5,34,23.3z M35.3,21.1c-0.3,0.1-0.7,0.8-0.9,1.4c0.8-0.4,1.1-1,1-1.4
				C35.5,21.1,35.4,21,35.3,21.1z"/>
			<path id="XMLID_83_" fill="#F8F9ED" d="M37.1,18.9c0.3-0.1,0.5,0.1,0.6,0.3c0.2,0.6-0.7,1.5-1,1.8c-0.1,0.1-0.3,1-0.4,1.2
				c0,0.2-0.1,0.5-0.1,0.6c0,0.1,0.1,0.1,0.1,0.1c0.1,0,0.3-0.3,0.6-1.1c0-0.1,0.1-0.2,0.1-0.2l0,0c0,0-0.1,0.2-0.1,0.3
				c-0.3,0.8-0.5,1.1-0.9,1.2c-0.2,0-0.3,0-0.3-0.2c-0.1-0.2,0-0.5,0.4-1.7c-0.2,0.2-0.4,0.5-0.6,1l-0.1,0c0.3-0.9,0.5-0.9,0.7-1.1
				c0.1-0.5,0.3-1,0.5-1.8C36.9,19.1,37,19,37.1,18.9z M37.4,19.1c-0.2,0-0.2,0.2-0.3,0.3c-0.3,1-0.4,1.4-0.4,1.4
				c0.4-0.4,1-1.1,0.9-1.6C37.6,19.1,37.5,19.1,37.4,19.1z"/>
		</g>
		<g>
			<path id="XMLID_4_" fill="#F8F9ED" d="M16.2,23.6l1-0.2c0,0,0,0,0,0c0.5-0.1,0.8,0,0.9,0.4c0,0.1,0,0.2,0,0.3l0,0.6
				c0,0.3-0.1,0.5-0.3,0.7c0.2,0,0.3,0.1,0.3,0.3c0,0.1,0,0.1,0,0.2l0,0.6c0,0.6-0.3,1-0.9,1.2l0,0l-1,0.2L16.2,23.6z M16.4,27.9
				l1-0.2l0,0c0.6-0.1,0.9-0.5,0.8-1.1l0-0.6c0-0.1,0-0.1,0-0.1c-0.1-0.2-0.2-0.3-0.4-0.4c0.3-0.2,0.4-0.4,0.4-0.7l0-0.6
				c0-0.1,0-0.2,0-0.3c-0.1-0.4-0.4-0.5-0.9-0.4c0,0,0,0,0,0l-1,0.2L16.4,27.9z M17.2,24c0.2,0,0.3,0,0.3,0.1c0,0,0,0.1,0,0.1l0,0.6
				c0,0.1-0.1,0.3-0.2,0.4c0,0-0.1,0.1-0.2,0.1l-0.2,0.1l0-1.3L17.2,24z M17.2,25.9c0.1,0,0.2,0,0.2,0c0.1,0,0.2,0.1,0.2,0.2
				c0,0,0,0,0,0.1l0,0.6c0,0.2-0.1,0.4-0.3,0.4L17,27.2l0-1.3L17.2,25.9z M17,24.1l0,1.2l0.2,0c0.1,0,0.2,0,0.2-0.1
				c0.1-0.1,0.2-0.2,0.2-0.3l0-0.7c0,0,0,0,0-0.1c0-0.1-0.1-0.1-0.2-0.1L17,24.1z M17,26l0,1.2l0.3-0.1c0.2,0,0.2-0.1,0.2-0.3l0-0.6
				c0,0,0,0,0-0.1c0-0.1-0.1-0.1-0.2-0.1c0,0-0.1,0-0.2,0L17,26z"/>
			<path id="XMLID_11_" fill="#F8F9ED" d="M20.8,25.4l0.3,1.5l-0.8,0.2l-0.1-0.9l-0.6,0.1l-0.1,0.9l-0.8,0.2l0.2-1.6l0.4-2.9l1-0.2
				L20.8,25.4z M20.2,22.7L19.3,23l-0.4,2.9l-0.2,1.5l0.6-0.1l0.1-1l0.8-0.2l0.1,0.9l0.6-0.1l-0.2-1.4L20.2,22.7z M19.5,25.7
				l0.2-2.2l0.3,2L19.5,25.7z M20,25.5l-0.2-1.4l-0.2,1.5L20,25.5z"/>
			<path id="XMLID_16_" fill="#F8F9ED" d="M21.5,26.8l-0.1-4.4l0.7-0.2l0.1,3.7l1.1-0.3l0,0.7L21.5,26.8z M23.2,26.3l0-0.5L22.1,26
				L22,22.3l-0.6,0.1l0.1,4.2L23.2,26.3z"/>
			<path id="XMLID_19_" fill="#F8F9ED" d="M25.6,24.2l0.3,1.5l-0.8,0.2L24.9,25l-0.6,0.2l-0.1,0.9l-0.8,0.2l0.2-1.6l0.4-2.9l1-0.2
				L25.6,24.2z M25,21.6l-0.9,0.2l-0.4,2.9l-0.2,1.5l0.6-0.1l0.1-1l0.8-0.2l0.1,0.9l0.6-0.1l-0.2-1.4L25,21.6z M24.3,24.6l0.2-2.2
				l0.3,2L24.3,24.6z M24.8,24.4l-0.2-1.5l-0.2,1.6L24.8,24.4z"/>
			<path id="XMLID_24_" fill="#F8F9ED" d="M26.1,21.2l1-0.2c0,0,0,0,0,0c0.5-0.1,0.8,0,0.9,0.4c0,0.1,0,0.2,0,0.3l0.1,2.5
				c0,0.6-0.3,1-0.9,1.2l0,0l-1,0.2L26.1,21.2z M26.3,25.5l1-0.2l0,0c0.6-0.1,0.9-0.5,0.8-1.1l-0.1-2.5c0-0.1,0-0.2,0-0.3
				c-0.1-0.4-0.4-0.5-0.9-0.4c0,0,0,0,0,0l-1,0.2L26.3,25.5z M27.1,21.6c0.2,0,0.3,0,0.3,0.1c0,0,0,0.1,0,0.1l0.1,2.5
				c0,0.2-0.1,0.4-0.3,0.4l-0.3,0.1l-0.1-3.2L27.1,21.6z M26.9,21.8l0.1,3l0.3-0.1c0.2,0,0.2-0.1,0.2-0.3l-0.1-2.5c0,0,0-0.1,0-0.1
				c0-0.1-0.1-0.2-0.2-0.1L26.9,21.8z"/>
			<path id="XMLID_29_" fill="#F8F9ED" d="M30.7,23l0.3,1.5l-0.8,0.2l-0.1-0.9l-0.6,0.1l-0.1,1l-0.8,0.2l0.2-1.6l0.4-2.9l1-0.2
				L30.7,23z M30.1,20.4l-0.9,0.2l-0.4,2.9L28.7,25l0.6-0.1l0.1-0.9l0.8-0.2l0.1,0.9l0.6-0.2L30.6,23L30.1,20.4z M29.5,23.3l0.2-2.1
				l0.3,2L29.5,23.3z M30,23.1l-0.2-1.5l-0.2,1.5L30,23.1z"/>
			<path id="XMLID_34_" fill="#F8F9ED" d="M6.5,35.7c0,0.6-0.3,1-0.9,1.1c-0.6,0.1-1-0.1-1-0.7l-0.1-2.6c0-0.6,0.3-1,0.9-1.1
				c0.6-0.1,1,0.1,1,0.7l0,0.6l-0.7,0.2l0-0.6c0-0.2-0.1-0.3-0.3-0.2l0,0c-0.2,0.1-0.3,0.2-0.3,0.4L5.2,36c0,0.2,0.1,0.3,0.3,0.2
				c0.2,0,0.3-0.2,0.3-0.4l0-0.6l0.7-0.2L6.5,35.7z"/>
			<path id="XMLID_36_" fill="#F8F9ED" d="M8.9,34.4l0.3,1.5L8.4,36l-0.2-0.9l-0.7,0.2l-0.1,1l-0.7,0.2L7,34.8l0.3-2.9l0.9-0.2
				L8.9,34.4z M8.2,34.5l-0.3-1.7l-0.2,1.8L8.2,34.5z"/>
			<path id="XMLID_39_" fill="#F8F9ED" d="M10.9,34l0.6-3.1l0.7-0.2l0.2,4.3l-0.6,0.2l-0.1-2.4l-0.5,2.5l-0.5,0.1l-0.7-2.3l0.1,2.4
				l-0.6,0.2l-0.2-4.3l0.7-0.2L10.9,34z"/>
			<path id="XMLID_41_" fill="#F8F9ED" d="M12.9,30.6l1-0.2c0.6-0.1,0.9,0.1,0.9,0.7l0,0.6c0,0.4-0.2,0.8-0.6,1
				c-0.1,0.1-0.2,0.1-0.4,0.1l-0.1,0l0.1,1.8l-0.7,0.2L12.9,30.6z M13.6,31.1l0.1,1.2l0.1,0c0.1,0,0.2,0,0.2-0.1
				c0.1-0.1,0.2-0.2,0.2-0.3l0-0.7c0-0.2-0.1-0.3-0.3-0.2L13.6,31.1z"/>
			<path id="XMLID_44_" fill="#F8F9ED" d="M15.2,30l1.7-0.4l0,0.6L16,30.5l0,1.2l0.9-0.2l0,0.6L16,32.3l0,1.2l1.1-0.3l0,0.6
				l-1.7,0.4L15.2,30z"/>
			<path id="XMLID_46_" fill="#F8F9ED" d="M19.5,32.5c0,0.6-0.3,1-0.9,1.1c-0.6,0.2-1-0.1-1-0.7l-0.1-2.6c0-0.6,0.3-1,0.9-1.1
				s1,0.1,1,0.7L19.5,32.5z M18.4,29.1L18,29.2l0.3-0.7l0.5-0.1L18.4,29.1z M18.8,30.1c0-0.2-0.1-0.3-0.3-0.2l0,0
				c-0.2,0-0.3,0.2-0.3,0.4l0.1,2.6c0,0.2,0.1,0.3,0.3,0.2c0.2,0,0.3-0.2,0.3-0.4L18.8,30.1z"/>
			<path id="XMLID_50_" fill="#F8F9ED" d="M20,28.9l0.7-0.2l0.7,2.3l-0.1-2.5l0.6-0.2l0.2,4.3l-0.7,0.2l-0.7-2.3l0.1,2.4l-0.6,0.1
				L20,28.9z"/>
			<path id="XMLID_52_" fill="#F8F9ED" d="M23.7,28l1.7-0.4l0,0.6l-1.1,0.3l0,1.2l0.9-0.2l0,0.6l-0.9,0.2l0,1.2l1.1-0.3l0,0.6
				l-1.7,0.4L23.7,28z"/>
			<path id="XMLID_54_" fill="#F8F9ED" d="M26,27.5l0.7-0.2l0.7,2.3l-0.1-2.5l0.6-0.1l0.2,4.3l-0.7,0.2l-0.7-2.3l0.1,2.4l-0.6,0.2
				L26,27.5z"/>
			<path id="XMLID_56_" fill="#F8F9ED" d="M30.5,29.2l0.3,1.5l-0.7,0.2l-0.2-0.9l-0.7,0.2l-0.1,1l-0.7,0.2l0.2-1.6l0.3-2.9l0.9-0.2
				L30.5,29.2z M29.8,29.4l-0.3-1.7l-0.2,1.9L29.8,29.4z"/>
			<path id="XMLID_59_" fill="#F8F9ED" d="M32.6,28.9l0.6-3.1l0.7-0.2l0.2,4.3L33.5,30l-0.1-2.4l-0.5,2.5l-0.5,0.1L31.7,28l0.1,2.4
				l-0.6,0.2L31,26.3l0.7-0.2L32.6,28.9z"/>
			<path id="XMLID_61_" fill="#F8F9ED" d="M36.6,28.4c0,0.6-0.3,1-0.9,1.1c-0.6,0.1-1-0.1-1-0.7l-0.1-2.6c0-0.6,0.3-1,0.9-1.1
				c0.6-0.1,1,0.1,1,0.7L36.6,28.4z M35.8,26c0-0.2-0.1-0.3-0.3-0.2l0,0c-0.2,0.1-0.3,0.2-0.3,0.4l0.1,2.6c0,0.2,0.1,0.3,0.3,0.2
				c0.2,0,0.3-0.2,0.3-0.4L35.8,26z"/>
			<path id="XMLID_64_" fill="#F8F9ED" d="M37,24.8l1-0.2c0.6-0.1,0.9,0.1,0.9,0.7l0,0.7c0,0.4-0.2,0.7-0.5,0.9l0.8,1.8l-0.7,0.2
				l-0.7-1.8l-0.1,0l0.1,1.9l-0.7,0.2L37,24.8z M37.7,25.3l0.1,1.2l0.1,0c0.1,0,0.2,0,0.2-0.1c0.1-0.1,0.2-0.2,0.2-0.3l0-0.6
				c0-0.2-0.1-0.3-0.3-0.2L37.7,25.3z"/>
			<path id="XMLID_67_" fill="#F8F9ED" d="M41.5,26.6l0.3,1.5l-0.7,0.2l-0.2-0.9l-0.7,0.2l-0.1,0.9l-0.7,0.2l0.1-1.6l0.4-2.9
				l0.9-0.2L41.5,26.6z M40.8,26.7L40.5,25l-0.2,1.9L40.8,26.7z"/>
			<path id="XMLID_70_" fill="#F8F9ED" d="M42,23.6l1-0.2c0.6-0.1,0.9,0.1,0.9,0.7l0.1,2.5c0,0.6-0.3,1-0.9,1.1l-1,0.2L42,23.6z
				 M42.7,24.1l0.1,3.1l0.3-0.1c0.2,0,0.3-0.2,0.3-0.4l-0.1-2.5c0-0.2-0.1-0.3-0.3-0.2L42.7,24.1z"/>
			<path id="XMLID_73_" fill="#F8F9ED" d="M46.5,26.1c0,0.6-0.3,1-0.9,1.1c-0.6,0.1-1-0.1-1-0.7l-0.1-2.6c0-0.6,0.3-1,0.9-1.1
				c0.6-0.1,1,0.1,1,0.7L46.5,26.1z M45.7,23.6c0-0.2-0.1-0.3-0.3-0.2l0,0c-0.2,0-0.3,0.2-0.3,0.4l0.1,2.6c0,0.2,0.1,0.3,0.3,0.2
				c0.2,0,0.3-0.2,0.3-0.4L45.7,23.6z"/>
		</g>
	</g>
</g>
</svg>
