<?xml version="1.0" encoding="utf-8"?>
<!-- Generator: Adobe Illustrator 18.0.0, SVG Export Plug-In . SVG Version: 6.00 Build 0)  -->
<!DOCTYPE svg PUBLIC "-//W3C//DTD SVG 1.1//EN" "http://www.w3.org/Graphics/SVG/1.1/DTD/svg11.dtd">
<svg version="1.1" id="Layer_1" xmlns="http://www.w3.org/2000/svg" xmlns:xlink="http://www.w3.org/1999/xlink" x="0px" y="0px"
	 viewBox="0 0 50 50" enable-background="new 0 0 50 50" xml:space="preserve">
<line fill="none" stroke="#EFEEE1" stroke-width="2" stroke-miterlimit="10" x1="25" y1="18.5" x2="25" y2="31.5"/>
<line fill="none" stroke="#EFEEE1" stroke-width="2" stroke-miterlimit="10" x1="31.5" y1="25" x2="18.5" y2="25"/>
<g>
	<path fill="#EFEEE1" d="M314.3,330.1c9.9,0,18,8.1,18,18c0,9.9-8.1,18-18,18c-9.9,0-18-8.1-18-18
		C296.3,338.2,304.4,330.1,314.3,330.1 M314.3,328.1c-11.1,0-20,9-20,20c0,11.1,9,20,20,20s20-9,20-20
		C334.3,337.1,325.4,328.1,314.3,328.1L314.3,328.1z"/>
</g>
<line fill="none" stroke="#EFEEE1" stroke-width="2" stroke-miterlimit="10" x1="315" y1="341" x2="315" y2="354"/>
<line fill="none" stroke="#EFEEE1" stroke-width="2" stroke-miterlimit="10" x1="321" y1="348" x2="309" y2="348"/>
<polygon fill="#EFEEE1" points="33,24 26,24 26,17 24,17 24,24 17,24 17,26 24,26 24,33 26,33 26,26 33,26 "/>
</svg>
